<?xml version="1.0" encoding="utf-8"?>
<!-- Generator: Adobe Illustrator 21.1.0, SVG Export Plug-In . SVG Version: 6.00 Build 0)  -->
<svg version="1.1" id="Layer_1" xmlns="http://www.w3.org/2000/svg" xmlns:xlink="http://www.w3.org/1999/xlink" x="0px" y="0px"
	 viewBox="0 0 221.8 258" style="enable-background:new 0 0 221.8 258;" xml:space="preserve">
<g>
	<path d="M195.6,87.3c0,4.1-2.4,10.7-7.3,19.8c-2.6,5.3-5.2,10.6-7.7,15.8c-2.6,4.2-6.2,6.3-10.7,6.3c-2.6,0-6.7-0.8-12.3-2.5
		c-5.5-1.7-9.7-2.5-12.5-2.5c-7.5,0-11.3,4.3-11.3,12.9c0,5.8,3.8,8.7,11.3,8.7c4,0,8.1-0.4,12.4-1.2c4.3-0.8,6.8-1.2,7.4-1.2
		c5.3,0,11.1,6.1,17.4,18.2c0.8,1.5,3.6,6,8.3,13.7c2.6,4.5,4,7.8,4,9.9c0,3.4-1.9,5.1-5.7,5.1h-25.7c-5.9,0-11.1-2.9-15.6-8.7
		c-1.1-1.5-5.7-9-13.8-22.6c-2.1-3.6-4.3-5.3-6.5-5.3c-0.9,0-2.2,0.7-4,2.2c-4.1,3.4-6.3,5.2-6.5,5.3c1.2,4.7,4.9,11.7,11.3,21
		c5.5,8,8.3,14.7,8.3,20v0.6c-6.3,4.6-11.7,10.4-16,17.2c-3.4,5.3-5.8,7.9-7.1,7.9c-3.6,0-10-6.3-19.4-19
		c-4.5-6.1-6.7-10.4-6.7-12.9c0-0.7,1.4-3.9,4.4-9.7c4.1-8,7.6-15.7,10.7-22.9c-0.4-2.2-1.7-4.2-4.1-5.9c-2.3-1.7-4.4-2.6-6.2-2.6
		c-2.8,0-5.3,1.8-7.7,5.5c-1.3,2-3.6,6.5-6.9,13.5c-2.5,5.3-4.9,9-7.3,11.1c-1.9,1.7-4.4,2.8-7.7,3.4c-3.8,0.3-7.6,0.6-11.3,1
		c-7,0.8-13.1,1.2-18.2,1.2c-3.4,0-5.1-1.2-5.1-3.6c0-9.9,3.4-20.4,10.1-31.6c5.7-9.4,11.5-14,17.6-14c0.9,0,3,0.4,6.3,1.1
		c3.3,0.7,6.1,1.1,8.5,1.1c9.1,0,13.6-2.3,13.6-6.9c0-3.4-1.3-6.5-4-9.3c-2.6-2.8-5.3-4.2-8.1-4.2c-0.4,0-2.7,0.8-6.9,2.3
		s-8.8,2.3-13.7,2.3c-3.6,0-6.3-1-8.1-3c-1.2-1.1-3.2-4-5.9-8.9c-7.8-13.6-11.7-22.4-11.7-26.3c0-2.9,1.3-4.5,3.8-4.6
		c2.5-0.2,6.3-0.5,11.5-0.9c2.9-0.3,6.7-0.9,11.3-2c4-0.9,6.6-1.4,7.9-1.4c4.3,0,8,2.4,11.1,7.3c0.9,1.4,4,8,9.3,19.8
		c1.2,2.6,3,5.1,5.3,7.5c1.8,2,3.1,3,3.8,3c1.3,0,3.3-1.4,5.9-4.4c6.1-6.7,9.1-11.1,9.1-13.1c0-2.5-3.2-7-9.7-13.5
		s-9.7-11.5-9.7-15.2c0-5.1,1.7-9.7,4.9-13.6c11.3-13.5,17.9-20.2,19.6-20.2c1.6,0,4.6,2.8,8.9,8.5c7.1,9.2,12,16.7,14.6,22.4
		c0,2.4-6.5,14.6-19.6,36.8c6.7,6.1,11.3,9.1,13.7,9.1c1.8,0,3.6-1,5.1-3c0.9-1.2,2.6-4.2,4.9-8.9c5.5-11.1,8.9-17.5,10.1-19.2
		c2.9-4.5,6.1-6.7,9.7-6.7c0.9,0,5,0.5,12.3,1.6c6.2,0.7,12.7,1.4,19.6,2.2c2.6,0.4,4.5,1,5.4,1.7C195.2,83.4,195.6,84.9,195.6,87.3
		z"/>
</g>
</svg>
